{"asset":{"version":"2.0","generator":"VECTARY"},"nodes":[{"translation":[0,0,0],"scale":[0.001,0.001,0.001],"rotation":[-0.7071067811865475,0,0,0.7071067811865476],"name":"troolla - baked","children":[1]},{"translation":[-0.01500701904296875,0,0.20000000298023224],"scale":[1,1,1],"rotation":[0,0,0,1],"name":"Merged Objects","mesh":0}],"materials":[{"pbrMetallicRoughness":{"baseColorFactor":[1,1,1,1],"baseColorTexture":{"index":0,"extensions":{"KHR_texture_transform":{"offset":[0,0],"scale":[1,1],"rotation":0}},"texCoord":0},"metallicFactor":1,"roughnessFactor":0.4},"name":"Malibu","emissiveTexture":{"index":1,"extensions":{"KHR_texture_transform":{"offset":[0,0],"scale":[1,1],"rotation":0}},"texCoord":0},"emissiveFactor":[0,0,0],"extensions":{},"alphaMode":"OPAQUE","doubleSided":true}],"textures":[{"sampler":0,"source":0},{"sampler":0,"source":1}],"images":[{"uri":"troolla_-_Path_1.jpg","mimeType":"image/jpeg"},{"uri":"troolla_-_Path.jpg","mimeType":"image/jpeg"}],"samplers":[{"wrapS":33071,"wrapT":33071}],"meshes":[{"primitives":[{"mode":4,"attributes":{"POSITION":1,"NORMAL":2,"TEXCOORD_0":3},"material":0,"indices":0}]}],"accessors":[{"bufferView":0,"byteOffset":0,"componentType":5125,"count":17049,"type":"SCALAR"},{"bufferView":1,"byteOffset":0,"componentType":5126,"count":8499,"max":[221.54501342773438,246.72999572753906,17.600000381469727],"min":[-221.54501342773438,-246.72999572753906,0],"type":"VEC3"},{"bufferView":2,"byteOffset":0,"componentType":5126,"count":8499,"type":"VEC3"},{"bufferView":3,"byteOffset":0,"componentType":5126,"count":8499,"type":"VEC2"}],"bufferViews":[{"buffer":0,"byteOffset":0,"byteLength":68196,"target":34963},{"buffer":0,"byteOffset":68196,"byteLength":101988,"target":34962},{"buffer":0,"byteOffset":170184,"byteLength":101988,"target":34962},{"buffer":0,"byteOffset":272172,"byteLength":67992,"target":34962}],"scene":0,"scenes":[{"nodes":[0],"name":"Project Name"}],"extensionsUsed":["KHR_texture_transform"],"buffers":[{"byteLength":340164,"uri":"ProjectName.bin"}]}